<?xml version="1.0" encoding="UTF-8"?>
<!-- Created with Inkscape (http://www.inkscape.org/) -->
<svg width="204" height="133" version="1.1" viewBox="0 0 53.975 35.19" xmlns="http://www.w3.org/2000/svg">
 <path transform="scale(.26458)" d="m155.13 79.154-4.082 7.9609h-12.314l-5.2207 9.8711s15.299 3 20.85 0c5.5499-3 21.76 0 21.76 0s-3.3296-4.3499-6.4297-6a15.41 15.41 0 0 1-5.0606-4.7305s2.6508-1.5002 5.7207-3.4902c2.78-1.78 11.789-4.4902 11.789-4.4902s-10.879-2.28-18.379 0c-3.6441 1.1079-6.5772 1.1396-8.6328 0.87891z" fill="#e1251b" stroke-width=".99999"/>
 <path transform="scale(.26458)" d="m64.834 87.115h-11.883l-4.1113-8.0176c-2.0666 0.31602-5.1454 0.35966-9.0332-0.82226-7.4997-2.28-18.381 0-18.381 0s9.0113 2.7098 11.861 4.5098c3.0699 1.99 5.7188 3.4902 5.7188 3.4902a15.41 15.41 0 0 1-5.1289 4.7109c-3.0901 1.6501-6.4297 6-6.4297 6s16.21-3 21.76 0c5.5502 3 20.85 0 20.85 0z" fill="#e1251b" stroke-width=".99999"/>
</svg>
