<!-- Created with Inkscape (http://www.inkscape.org/) -->
<svg width="204" height="133" version="1.1" viewBox="0 0 53.975 35.19" xmlns="http://www.w3.org/2000/svg">
 <g stroke-width=".26458">
  <path class="cls-12" d="m43.041 16.11h-32.221a16.11 16.11 0 0 1 32.221 0z" fill="#00269a" opacity=".87"/>
  <path class="cls-13" d="m25.377 8.1865h1.2462v-0.64823h0.62971v0.64823h1.2462v-0.64823h0.3175v-0.29104h-0.3175v-0.33073h-3.1221v0.33073h-0.3175v0.29104h0.3175zm2.4844-3.4396h-1.868v1.868h1.868zm-0.93398 1.2991a0.36512 0.36512 0 1 1 0.36512-0.36512 0.36512 0.36512 0 0 1-0.36512 0.36777zm0.62706-3.2147a0.62442 0.62442 0 0 0-0.47096-0.6059v-0.79375a0.15346 0.15346 0 0 0-0.15346-0.15346 0.15081 0.15081 0 0 0-0.15081 0.15346v0.79375a0.62706 0.62706 0 0 0-0.4736 0.6059v1.5716h1.2488zm-0.28575 0.95779h-0.67469v-0.61119a0.33867 0.33867 0 1 1 0.67469 0zm-6.2944 11.303h4.7413l0.32279-0.62971h0.58473v-1.8838h0.61383v1.8838h0.59002l0.30427 0.62971h4.7625v-5.3658h-11.906zm10.673-5.0588h0.61383v1.5663h-0.61383zm0 1.9076h0.61383v0.30162h-0.61383zm0 0.63764h0.61383v1.5875h-0.61383zm-1.2488-2.5453h0.61383v1.5663h-0.61383zm0 1.9076h0.61383v0.30162h-0.61383zm0 0.63764h0.61383v1.5875h-0.61383zm-1.2488-2.5453h0.61383v1.5663h-0.61383zm0 1.9076h0.61383v0.30162h-0.61383zm0 0.63764h0.61383v1.5875h-0.61383zm-1.2488-2.5453h0.61383v1.5663h-0.61383zm0 1.9076h0.61383v0.30162h-0.61383zm0 0.63764h0.61383v1.5875h-0.61383zm-1.2779-2.5453h0.61383v1.5663h-0.61383zm0 1.9076h0.61383v0.30162h-0.61383zm-1.2912-1.9076h0.61119v1.5663h-0.61119zm0 1.9076h0.61119v0.30162h-0.61119zm0 0.63764h0.61119v1.5875h-0.61119zm-1.2541-2.5426h0.61119v1.5663h-0.61119zm0 1.9076h0.61119v0.29898h-0.61119zm0 0.63765h0.61119v1.5875h-0.61119zm-1.2488-2.5453h0.61119v1.5663h-0.6059zm0 1.9076h0.61119v0.29898h-0.6059zm0 0.63765h0.61119v1.5875h-0.6059zm-1.2488-2.5453h0.61119v1.5663h-0.61119zm0 1.9076h0.61119v0.29898h-0.61119zm0 0.63765h0.61119v1.5875h-0.61119zm4.6725 2.2437-0.14023 0.26458h1.6166l-0.13229-0.26458zm6.0034-6.3315v-1.2938h-0.30692v0.64558h-3.175v0.33073h3.175v0.3175h-10.054v-0.3175h3.175v-0.33073h-3.175v-0.64558h-0.30692v1.2965l-0.61119 0.90488h11.906l-0.60325-0.90752zm5.6753 6.6014h0.91017l0.18785-0.37306h0.32279v-1.0345h0.52917v1.0345h0.26458l0.2249 0.37306h0.92075v-3.1512h-3.3602zm2.4051-2.6855h0.52917v0.96573h-0.52917zm0 1.2779h0.52917v0.96308h-0.52917zm-1.0927-1.4446h0.74612v1.1351h-0.74612zm-0.87048 0.16934h0.52917v0.96573h-0.52917zm0 1.2779h0.52917v0.96309h-0.52917zm-5.2282 1.4076h0.41275v-2.077a0.38365 0.38365 0 0 1 0.76729 0v2.077h0.64558v-2.077a0.38365 0.38365 0 1 1 0.76464 0v2.077h0.64558v-2.077a0.38365 0.38365 0 1 1 0.76465 0v2.077h0.50006v-3.0559h-4.4979zm0-3.3629h4.4979l0.26458-0.41539h-4.7625zm7.6729-0.74877h-2.413l-0.46302 0.74877h3.3602zm-1.6589 3.9396-0.08467 0.16933h1.0583l-0.10054-0.16933zm-25.336 0-0.10319 0.16933h1.0583l-0.08467-0.16933zm-0.77788-3.9423-0.48419 0.74877h3.3602l-0.46302-0.74877zm3.175 4.1116h0.50006v-2.077a0.38365 0.38365 0 1 1 0.76464 0v2.077h0.64558v-2.077a0.38365 0.38365 0 1 1 0.76729 0v2.077h0.64294v-2.077a0.38365 0.38365 0 0 1 0.76729 0v2.077h0.4154v-3.0533h-4.4979zm-3.6512 0h0.92604l0.2249-0.37306h0.26458v-1.0345h0.52917v1.0345h0.30427l0.18786 0.37306h0.91017v-3.1512h-3.3602zm2.4051-2.6855h0.52917v0.96573h-0.52917zm0 1.2779h0.52917v0.96308h-0.52917zm-1.1033-1.4446h0.74612v1.1351h-0.74612zm-0.87048 0.16934h0.52917v0.96573h-0.52917zm0 1.2779h0.52917v0.96309h-0.52917zm3.2147-1.9553h4.4979v-0.41804h-4.7625z" fill="#fff" opacity=".87"/>
 </g>
 <polygon class="cls-2" transform="matrix(.26458 0 0 .26458 -115.36 -30.884)" points="546.63 176.83 528.93 176.83 474.73 176.83 488.73 204.14 528.93 204.14 546.63 204.14 586.83 204.14 600.83 176.83" fill="#e1251b" opacity=".87"/>
 <text class="cls-4" x="20.181177" y="21.23534" fill="#ffffff" font-family="CaslonAntique-Bold, 'Caslon Antique'" font-size="5.2335px" font-weight="700" opacity=".87" stroke-width=".26458">HOME</text>
</svg>
